<svg id="Capa_1" enable-background="new 0 0 512 512" height="512" viewBox="0 0 512 512" width="512" xmlns="http://www.w3.org/2000/svg"><g><path d="m355.13 256c41.13 30.88 65.87 79.4 65.87 131.55v109.45h-330v-109.45c0-52.15 24.74-100.67 65.87-131.55-41.13-30.89-65.87-79.4-65.87-131.56v-109.44h330v109.44c0 52.16-24.74 100.67-65.87 131.56z" fill="#f0f7ff"/><path d="m355.13 256c41.13 30.88 65.87 79.4 65.87 131.55v109.45h-165v-482h165v109.44c0 52.16-24.74 100.67-65.87 131.56z" fill="#dfe7f4"/><g><path d="m401 497h-290l136-102c2.66-2 5.83-3 9-3s6.34 1 9 3z" fill="#fed843"/><path d="m401 497h-145v-105c3.17 0 6.34 1 9 3z" fill="#fabe2c"/><path d="m301 196c0 19.55-12.54 36.23-30 42.42v17.58c0 8.28-6.72 15-15 15s-15-6.72-15-15v-17.58c-17.46-6.19-30-22.87-30-42.42 0-8.28 6.72-15 15-15s15 6.72 15 15c0 8.27 6.73 15 15 15s15-6.73 15-15-6.73-15-15-15c-24.81 0-45-20.19-45-45 0-19.55 12.54-36.23 30-42.42v-17.58c0-8.28 6.72-15 15-15s15 6.72 15 15v17.58c17.46 6.19 30 22.87 30 42.42 0 8.28-6.72 15-15 15s-15-6.72-15-15c0-8.27-6.73-15-15-15s-15 6.73-15 15 6.73 15 15 15c24.81 0 45 20.19 45 45z" fill="#fed843"/><path d="m301 196c0 19.55-12.54 36.23-30 42.42v17.58c0 8.28-6.72 15-15 15v-60c8.27 0 15-6.73 15-15s-6.73-15-15-15v-30c24.81 0 45 20.19 45 45z" fill="#fabe2c"/><path d="m256 121v-60c8.28 0 15 6.72 15 15v17.58c17.46 6.19 30 22.87 30 42.42 0 8.28-6.72 15-15 15s-15-6.72-15-15c0-8.27-6.73-15-15-15z" fill="#fabe2c"/><path d="m271 316v30c0 8.28-6.72 15-15 15s-15-6.72-15-15v-30c0-8.28 6.72-15 15-15s15 6.72 15 15z" fill="#fed843"/><path d="m271 316v30c0 8.28-6.72 15-15 15v-60c8.28 0 15 6.72 15 15z" fill="#fabe2c"/></g><g><path d="m436 30h-360c-8.284 0-15-6.716-15-15s6.716-15 15-15h360c8.284 0 15 6.716 15 15s-6.716 15-15 15z" fill="#61729b"/></g><g><path d="m436 512h-360c-8.284 0-15-6.716-15-15s6.716-15 15-15h360c8.284 0 15 6.716 15 15s-6.716 15-15 15z" fill="#61729b"/></g></g></svg>